{"title":"Alien Expedition 2018 1080p WEB-DL DD 5.1 x264 [MW]","magnet":"magnet:?xt=urn:btih:44e67a03b63a6f3d3d70f7047004da3779a8ac91&dn=Alien+Expedition+2018+1080p+WEB-DL+DD+5.1+x264+%5BMW%5D&tr=udp%3A%2F%2Ftracker.leechers-paradise.org%3A6969&tr=udp%3A%2F%2Fzer0day.ch%3A1337&tr=udp%3A%2F%2Fopen.demonii.com%3A1337&tr=udp%3A%2F%2Ftracker.coppersurfer.tk%3A6969&tr=udp%3A%2F%2Fexodus.desync.com%3A6969","uploader":"MFreaky","categoryP":"video","categoryS":"hd___movies","size":"1775393747","seeders":"11","leechers":"16","description":" <a href=\"https://pichub.site/image/EXn8j\" rel=\"nofollow\" target=\"_NEW\">https://pichub.site/image/EXn8j</a> <a href=\"\nhttps://pichub.site/image/EXXIh\" rel=\"nofollow\" target=\"_NEW\">\nhttps://pichub.site/image/EXXIh</a> <a href=\"\nhttps://pichub.site/image/EXslr\" rel=\"nofollow\" target=\"_NEW\">\nhttps://pichub.site/image/EXslr</a> <a href=\"\nhttps://pichub.site/image/EXZ4k\" rel=\"nofollow\" target=\"_NEW\">\nhttps://pichub.site/image/EXZ4k</a> <a href=\"\nhttps://pichub.site/image/EX9Lv\" rel=\"nofollow\" target=\"_NEW\">\nhttps://pichub.site/image/EX9Lv</a>\r\n\r\nIMDB <a href=\"\nhttps://www.imdb.com/title/tt8305690/\" rel=\"nofollow\" target=\"_NEW\">\nhttps://www.imdb.com/title/tt8305690/</a>\r\n\r\nVideo\r\nFormat                                   : AVC\r\nFormat/Info                              : Advanced Video Codec\r\nFormat profile                           : High@L4.1\r\nFormat settings                          : CABAC / 4 Ref Frames\r\nFormat settings, CABAC                   : Yes\r\nFormat settings, RefFrames               : 4 frames\r\nCodec ID                                 : V_MPEG4/ISO/AVC\r\nDuration                                 : 1 h 34 min\r\nBit rate                                 : 2 200 kb/s\r\nWidth                                    : 1 920 pixels\r\nHeight                                   : 816 pixels\r\nDisplay aspect ratio                     : 2.35:1\r\nFrame rate mode                          : Constant\r\nFrame rate                               : 23.976 (24000/1001) FPS\r\nColor space                              : YUV\r\nChroma subsampling                       : 4:2:0\r\nBit depth                                : 8 bits\r\nBits/(Pixel*Frame)                       : 0.059\r\nStream size                              : 1.40 GiB (85%)\r\nWriting library                          : x264 core 155 r2901 7d0ff22\r\n\r\nAudio\r\nFormat                                   : AC-3\r\nFormat/Info                              : Audio Coding 3\r\nCodec ID                                 : A_AC3\r\nDuration                                 : 1 h 34 min\r\nBit rate mode                            : Constant\r\nBit rate                                 : 384 kb/s\r\nChannel(s)                               : 6 channels\r\nChannel positions                        : Front: L C R, Side: L R, LFE\r\nSampling rate                            : 48.0 kHz\r\nFrame rate                               : 31.250 FPS (1536 SPF)\r\nBit depth                                : 16 bits\r\nStream size                              : 259 MiB (15%)\r\nLanguage                                 : English","last_updated":"2018-09-28T12:17:52.898Z","parsed":{"xt":"urn:btih:44e67a03b63a6f3d3d70f7047004da3779a8ac91","dn":"Alien Expedition 2018 1080p WEB-DL DD 5.1 x264 [MW]","tr":["udp://exodus.desync.com:6969","udp://open.demonii.com:1337","udp://tracker.coppersurfer.tk:6969","udp://tracker.leechers-paradise.org:6969","udp://zer0day.ch:1337"],"infoHash":"44e67a03b63a6f3d3d70f7047004da3779a8ac91","infoHashBuffer":{"type":"Buffer","data":[68,230,122,3,182,58,111,61,61,112,247,4,112,4,218,55,121,168,172,145]},"name":"Alien Expedition 2018 1080p WEB-DL DD 5.1 x264 [MW]","announce":["udp://exodus.desync.com:6969","udp://open.demonii.com:1337","udp://tracker.coppersurfer.tk:6969","udp://tracker.leechers-paradise.org:6969","udp://zer0day.ch:1337"],"urlList":[]}}